BodoniModa-6ptItalic.ufo
<glyph name="quotesingle" format="2">
  <advance width="399"/>
  <unicode hex="0027"/>
  <outline>
    <contour>
      <point x="252" y="977" type="curve"/>
      <point x="324" y="977" type="line"/>
      <point x="385" y="1177"/>
      <point x="444" y="1228"/>
      <point x="482" y="1378" type="curve" smooth="yes"/>
      <point x="486" y="1392"/>
      <point x="488" y="1406"/>
      <point x="488" y="1418" type="curve" smooth="yes"/>
      <point x="488" y="1477"/>
      <point x="450" y="1520"/>
      <point x="391" y="1520" type="curve" smooth="yes"/>
      <point x="332" y="1520"/>
      <point x="279" y="1476"/>
      <point x="279" y="1398" type="curve" smooth="yes"/>
      <point x="279" y="1386"/>
      <point x="280" y="1375"/>
      <point x="282" y="1361" type="curve" smooth="yes"/>
      <point x="303" y="1211"/>
      <point x="302" y="1157"/>
    </contour>
  </outline>
</glyph>
<glyph name="question" format="2">
  <advance width="1099"/>
  <unicode hex="003F"/>
  <outline>
    <contour>
      <point x="477" y="418" type="line"/>
      <point x="551" y="418" type="line"/>
      <point x="604" y="672" type="line"/>
      <point x="886" y="690"/>
      <point x="1190" y="900"/>
      <point x="1190" y="1180" type="curve" smooth="yes"/>
      <point x="1190" y="1400"/>
      <point x="1024" y="1520"/>
      <point x="752" y="1520" type="curve" smooth="yes"/>
      <point x="527" y="1520"/>
      <point x="340" y="1346"/>
      <point x="340" y="1182" type="curve" smooth="yes"/>
      <point x="340" y="1100"/>
      <point x="393" y="1059"/>
      <point x="454" y="1059" type="curve" smooth="yes"/>
      <point x="504" y="1059"/>
      <point x="568" y="1090"/>
      <point x="568" y="1170" type="curve" smooth="yes"/>
      <point x="568" y="1240"/>
      <point x="513" y="1279"/>
      <point x="454" y="1279" type="curve" smooth="yes"/>
      <point x="397" y="1279"/>
      <point x="342" y="1242"/>
      <point x="342" y="1182" type="curve"/>
      <point x="415" y="1182" type="line"/>
      <point x="415" y="1312"/>
      <point x="554" y="1449"/>
      <point x="732" y="1449" type="curve" smooth="yes"/>
      <point x="950" y="1449"/>
      <point x="988" y="1348"/>
      <point x="988" y="1180" type="curve" smooth="yes"/>
      <point x="988" y="944"/>
      <point x="759" y="790"/>
      <point x="545" y="728" type="curve"/>
    </contour>
    <contour>
      <point x="439" y="-20" type="curve" smooth="yes"/>
      <point x="505" y="-20"/>
      <point x="558" y="34"/>
      <point x="558" y="100" type="curve" smooth="yes"/>
      <point x="558" y="166"/>
      <point x="505" y="221"/>
      <point x="439" y="221" type="curve" smooth="yes"/>
      <point x="373" y="221"/>
      <point x="318" y="166"/>
      <point x="318" y="100" type="curve" smooth="yes"/>
      <point x="318" y="34"/>
      <point x="373" y="-20"/>
    </contour>
  </outline>
</glyph>
<glyph name="B" format="2">
  <advance width="1250"/>
  <unicode hex="0042"/>
  <anchor x="416" y="0" name="bottom"/>
  <anchor x="714" y="1500" name="top"/>
  <outline>
    <contour>
      <point x="-90" y="0" type="line"/>
      <point x="529" y="0" type="line" smooth="yes"/>
      <point x="871" y="0"/>
      <point x="1150" y="180"/>
      <point x="1150" y="480" type="curve" smooth="yes"/>
      <point x="1150" y="653"/>
      <point x="1026" y="750"/>
      <point x="810" y="774" type="curve"/>
      <point x="1066" y="824"/>
      <point x="1260" y="1006"/>
      <point x="1260" y="1210" type="curve" smooth="yes"/>
      <point x="1260" y="1410"/>
      <point x="1142" y="1500"/>
      <point x="820" y="1500" type="curve" smooth="yes"/>
      <point x="260" y="1500" type="line"/>
      <point x="260" y="1427" type="line"/>
      <point x="422" y="1427" type="line"/>
      <point x="107" y="73" type="line"/>
      <point x="-90" y="73" type="line"/>
    </contour>
    <contour>
      <point x="296" y="73" type="line"/>
      <point x="613" y="1427" type="line"/>
      <point x="820" y="1427" type="line" smooth="yes"/>
      <point x="992" y="1427"/>
      <point x="1061" y="1369"/>
      <point x="1061" y="1230" type="curve" smooth="yes"/>
      <point x="1061" y="932"/>
      <point x="822" y="807"/>
      <point x="670" y="807" type="curve" smooth="yes"/>
      <point x="452" y="807" type="line"/>
      <point x="435" y="733" type="line"/>
      <point x="682" y="733" type="line" smooth="yes"/>
      <point x="834" y="733"/>
      <point x="930" y="698"/>
      <point x="930" y="520" type="curve" smooth="yes"/>
      <point x="930" y="262"/>
      <point x="771" y="73"/>
      <point x="529" y="73" type="curve" smooth="yes"/>
    </contour>
  </outline>
</glyph>
<glyph name="F" format="2">
  <advance width="1140"/>
  <unicode hex="0046"/>
  <anchor x="176" y="0" name="bottom"/>
  <anchor x="824" y="1500" name="top"/>
  <outline>
    <contour>
      <point x="80" y="0" type="line"/>
      <point x="270" y="0" type="line"/>
      <point x="618" y="1500" type="line"/>
      <point x="428" y="1500" type="line"/>
    </contour>
    <contour>
      <point x="-90" y="0" type="line"/>
      <point x="471" y="0" type="line"/>
      <point x="471" y="73" type="line"/>
      <point x="-90" y="73" type="line"/>
    </contour>
    <contour>
      <point x="714" y="536" type="curve"/>
      <point x="787" y="536" type="line"/>
      <point x="883" y="945" type="line"/>
      <point x="811" y="945" type="line"/>
      <point x="786" y="811"/>
      <point x="699" y="783"/>
      <point x="527" y="783" type="curve" smooth="yes"/>
      <point x="418" y="783" type="line"/>
      <point x="418" y="711" type="line"/>
      <point x="527" y="711" type="line" smooth="yes"/>
      <point x="701" y="711"/>
      <point x="743" y="670"/>
    </contour>
    <contour>
      <point x="1143" y="1090" type="curve"/>
      <point x="1215" y="1090" type="line"/>
      <point x="1311" y="1500" type="line"/>
      <point x="248" y="1500" type="line"/>
      <point x="248" y="1427" type="line"/>
      <point x="928" y="1427" type="line" smooth="yes"/>
      <point x="1162" y="1427"/>
      <point x="1193" y="1304"/>
    </contour>
  </outline>
</glyph>
<glyph name="Z" format="2">
  <advance width="1097"/>
  <unicode hex="005A"/>
  <anchor x="456" y="0" name="bottom"/>
  <anchor x="676" y="1500" name="top"/>
  <outline>
    <contour>
      <point x="-100" y="0" type="line"/>
      <point x="943" y="0" type="line"/>
      <point x="1031" y="380" type="line"/>
      <point x="958" y="380" type="line"/>
      <point x="899" y="128"/>
      <point x="834" y="73"/>
      <point x="561" y="73" type="curve" smooth="yes"/>
      <point x="141" y="73" type="line"/>
      <point x="1229" y="1427" type="line"/>
      <point x="1229" y="1500" type="line"/>
      <point x="244" y="1500" type="line"/>
      <point x="165" y="1160" type="line"/>
      <point x="238" y="1160" type="line"/>
      <point x="288" y="1374"/>
      <point x="355" y="1427"/>
      <point x="628" y="1427" type="curve" smooth="yes"/>
      <point x="988" y="1427" type="line"/>
      <point x="-100" y="73" type="line"/>
    </contour>
  </outline>
</glyph>
<glyph name="bracketright" format="2">
  <advance width="649"/>
  <unicode hex="005D"/>
  <outline>
    <contour>
      <point x="-191" y="-301" type="line"/>
      <point x="289" y="-301" type="line"/>
      <point x="709" y="1560" type="line"/>
      <point x="229" y="1560" type="line"/>
      <point x="229" y="1487" type="line"/>
      <point x="511" y="1487" type="line"/>
      <point x="127" y="-226" type="line"/>
      <point x="-191" y="-226" type="line"/>
    </contour>
  </outline>
</glyph>
<glyph name="f" format="2">
  <advance width="717"/>
  <unicode hex="0066"/>
  <anchor x="-124" y="-500" name="bottom"/>
  <anchor x="781" y="1497" name="top"/>
  <outline>
    <contour>
      <point x="-173" y="-520" type="curve" smooth="yes"/>
      <point x="47" y="-520"/>
      <point x="198.855" y="-267.785"/>
      <point x="257" y="-23" type="curve" smooth="yes"/>
      <point x="519" y="1080" type="line" smooth="yes"/>
      <point x="575.743" y="1318.88"/>
      <point x="639" y="1452"/>
      <point x="770" y="1452" type="curve" smooth="yes"/>
      <point x="845" y="1452"/>
      <point x="892" y="1402"/>
      <point x="892" y="1377" type="curve"/>
      <point x="965" y="1377" type="line"/>
      <point x="965" y="1432"/>
      <point x="902" y="1468"/>
      <point x="865" y="1468" type="curve" smooth="yes"/>
      <point x="816" y="1468"/>
      <point x="759" y="1432"/>
      <point x="759" y="1367" type="curve" smooth="yes"/>
      <point x="759" y="1304"/>
      <point x="803" y="1268"/>
      <point x="863" y="1268" type="curve" smooth="yes"/>
      <point x="924" y="1268"/>
      <point x="967" y="1310"/>
      <point x="967" y="1377" type="curve" smooth="yes"/>
      <point x="967" y="1456"/>
      <point x="887" y="1520"/>
      <point x="770" y="1520" type="curve" smooth="yes"/>
      <point x="560" y="1520"/>
      <point x="396.402" y="1270.01"/>
      <point x="340" y="1023" type="curve" smooth="yes"/>
      <point x="87" y="-85" type="line" smooth="yes"/>
      <point x="32.39" y="-324.164"/>
      <point x="-23" y="-452"/>
      <point x="-164" y="-452" type="curve" smooth="yes"/>
      <point x="-249" y="-452"/>
      <point x="-295" y="-394"/>
      <point x="-295" y="-377" type="curve"/>
      <point x="-368" y="-377" type="line"/>
      <point x="-368" y="-427"/>
      <point x="-316" y="-468"/>
      <point x="-262" y="-468" type="curve" smooth="yes"/>
      <point x="-223" y="-468"/>
      <point x="-162" y="-437"/>
      <point x="-162" y="-367" type="curve" smooth="yes"/>
      <point x="-162" y="-305"/>
      <point x="-206" y="-268"/>
      <point x="-266" y="-268" type="curve" smooth="yes"/>
      <point x="-322" y="-268"/>
      <point x="-370" y="-305"/>
      <point x="-370" y="-377" type="curve" smooth="yes"/>
      <point x="-370" y="-456"/>
      <point x="-289" y="-520"/>
    </contour>
    <contour>
      <point x="133" y="847" type="line"/>
      <point x="744" y="847" type="line"/>
      <point x="744" y="920" type="line"/>
      <point x="133" y="920" type="line"/>
    </contour>
  </outline>
</glyph>
<glyph name="i" format="2">
  <advance width="587"/>
  <unicode hex="0069"/>
  <anchor x="289" y="0" name="bottom"/>
  <anchor x="289" y="0" name="cedilla"/>
  <outline>
    <contour>
      <point x="226" y="-20" type="curve" smooth="yes"/>
      <point x="373" y="-20"/>
      <point x="450" y="76"/>
      <point x="537" y="306" type="curve"/>
      <point x="466" y="330" type="line"/>
      <point x="389" y="148"/>
      <point x="337" y="71"/>
      <point x="276" y="71" type="curve" smooth="yes"/>
      <point x="246" y="71"/>
      <point x="235" y="90"/>
      <point x="235" y="113" type="curve" smooth="yes"/>
      <point x="235" y="122"/>
      <point x="235.826" y="133.767"/>
      <point x="239" y="145" type="curve" smooth="yes"/>
      <point x="458" y="920" type="line"/>
      <point x="145" y="920" type="line"/>
      <point x="145" y="847" type="line"/>
      <point x="281" y="847" type="line"/>
      <point x="87" y="170" type="line" smooth="yes"/>
      <point x="80.793" y="148.34"/>
      <point x="78" y="126"/>
      <point x="78" y="106" type="curve" smooth="yes"/>
      <point x="78" y="30"/>
      <point x="122" y="-20"/>
    </contour>
    <contour>
      <point x="465" y="1269" type="curve" smooth="yes"/>
      <point x="531" y="1269"/>
      <point x="586" y="1324"/>
      <point x="586" y="1390" type="curve" smooth="yes"/>
      <point x="586" y="1456"/>
      <point x="531" y="1510"/>
      <point x="465" y="1510" type="curve" smooth="yes"/>
      <point x="399" y="1510"/>
      <point x="346" y="1456"/>
      <point x="346" y="1390" type="curve" smooth="yes"/>
      <point x="346" y="1324"/>
      <point x="399" y="1269"/>
    </contour>
  </outline>
</glyph>
<glyph name="j" format="2">
  <advance width="520"/>
  <unicode hex="006A"/>
  <anchor x="-216" y="-500" name="bottom"/>
  <outline>
    <contour>
      <point x="-219" y="-520" type="curve" smooth="yes"/>
      <point x="1" y="-520"/>
      <point x="146.58" y="-274.026"/>
      <point x="211" y="-23" type="curve" smooth="yes"/>
      <point x="453" y="920" type="line"/>
      <point x="147" y="920" type="line"/>
      <point x="147" y="847" type="line"/>
      <point x="272" y="847" type="line"/>
      <point x="42" y="-87" type="line" smooth="yes"/>
      <point x="-15.284" y="-319.622"/>
      <point x="-70" y="-451"/>
      <point x="-210" y="-451" type="curve" smooth="yes"/>
      <point x="-289" y="-451"/>
      <point x="-340" y="-397"/>
      <point x="-340" y="-377" type="curve"/>
      <point x="-413" y="-377" type="line"/>
      <point x="-413" y="-427"/>
      <point x="-365" y="-465"/>
      <point x="-307" y="-465" type="curve" smooth="yes"/>
      <point x="-240" y="-465"/>
      <point x="-207" y="-417"/>
      <point x="-207" y="-366" type="curve" smooth="yes"/>
      <point x="-207" y="-306"/>
      <point x="-251" y="-268"/>
      <point x="-311" y="-268" type="curve" smooth="yes"/>
      <point x="-367" y="-268"/>
      <point x="-415" y="-305"/>
      <point x="-415" y="-377" type="curve" smooth="yes"/>
      <point x="-415" y="-470"/>
      <point x="-312" y="-520"/>
    </contour>
    <contour>
      <point x="451" y="1279" type="curve" smooth="yes"/>
      <point x="517" y="1279"/>
      <point x="570" y="1334"/>
      <point x="570" y="1400" type="curve" smooth="yes"/>
      <point x="570" y="1466"/>
      <point x="517" y="1520"/>
      <point x="451" y="1520" type="curve" smooth="yes"/>
      <point x="385" y="1520"/>
      <point x="331" y="1466"/>
      <point x="331" y="1400" type="curve" smooth="yes"/>
      <point x="331" y="1334"/>
      <point x="385" y="1279"/>
    </contour>
  </outline>
</glyph>
<glyph name="m" format="2">
  <advance width="1653"/>
  <unicode hex="006D"/>
  <anchor x="685" y="0" name="bottom"/>
  <anchor x="956" y="920" name="top"/>
  <outline>
    <contour>
      <point x="1270" y="-20" type="curve" smooth="yes"/>
      <point x="1417" y="-20"/>
      <point x="1495" y="76"/>
      <point x="1581" y="306" type="curve"/>
      <point x="1510" y="330" type="line"/>
      <point x="1434" y="148"/>
      <point x="1378" y="71"/>
      <point x="1319" y="71" type="curve" smooth="yes"/>
      <point x="1294" y="71"/>
      <point x="1279" y="89"/>
      <point x="1279" y="110" type="curve" smooth="yes"/>
      <point x="1279" y="120"/>
      <point x="1281.5" y="133.855"/>
      <point x="1285" y="146" type="curve" smooth="yes"/>
      <point x="1428" y="639" type="line" smooth="yes"/>
      <point x="1474.54" y="800.573"/>
      <point x="1448" y="939"/>
      <point x="1269" y="939" type="curve" smooth="yes"/>
      <point x="1039" y="939"/>
      <point x="837" y="571"/>
      <point x="761" y="266" type="curve"/>
      <point x="814" y="266" type="line"/>
      <point x="890" y="573"/>
      <point x="1102" y="847"/>
      <point x="1218" y="847" type="curve" smooth="yes"/>
      <point x="1310" y="847"/>
      <point x="1307.47" y="771.904"/>
      <point x="1262" y="616" type="curve" smooth="yes"/>
      <point x="1136" y="184" type="line" smooth="yes"/>
      <point x="1130.14" y="163.905"/>
      <point x="1123" y="137"/>
      <point x="1123" y="108" type="curve" smooth="yes"/>
      <point x="1123" y="32"/>
      <point x="1164" y="-20"/>
    </contour>
    <contour>
      <point x="60" y="0" type="line"/>
      <point x="220" y="0" type="line"/>
      <point x="440" y="920" type="line"/>
      <point x="140" y="920" type="line"/>
      <point x="140" y="847" type="line"/>
      <point x="262" y="847" type="line"/>
    </contour>
    <contour>
      <point x="590" y="0" type="line"/>
      <point x="749" y="0" type="line"/>
      <point x="906" y="639" type="line" smooth="yes"/>
      <point x="946" y="801"/>
      <point x="917" y="939"/>
      <point x="754" y="939" type="curve" smooth="yes"/>
      <point x="527" y="939"/>
      <point x="305" y="571"/>
      <point x="229" y="266" type="curve"/>
      <point x="283" y="266" type="line"/>
      <point x="359" y="573"/>
      <point x="580" y="847"/>
      <point x="696" y="847" type="curve" smooth="yes"/>
      <point x="788" y="847"/>
      <point x="778" y="774"/>
      <point x="740" y="616" type="curve" smooth="yes"/>
    </contour>
  </outline>
</glyph>
<glyph name="o" format="2">
  <advance width="983"/>
  <unicode hex="006F"/>
  <anchor x="365" y="0" name="bottom"/>
  <anchor x="598" y="920" name="top"/>
  <outline>
    <contour>
      <point x="367" y="-20" type="curve" smooth="yes"/>
      <point x="649" y="-20"/>
      <point x="903" y="270"/>
      <point x="903" y="620" type="curve" smooth="yes"/>
      <point x="903" y="800"/>
      <point x="808" y="940"/>
      <point x="606" y="940" type="curve" smooth="yes"/>
      <point x="324" y="940"/>
      <point x="70" y="649"/>
      <point x="70" y="299" type="curve" smooth="yes"/>
      <point x="70" y="119"/>
      <point x="165" y="-20"/>
    </contour>
    <contour>
      <point x="367" y="52" type="curve" smooth="yes"/>
      <point x="265" y="52"/>
      <point x="218" y="114"/>
      <point x="218" y="212" type="curve" smooth="yes"/>
      <point x="218" y="510"/>
      <point x="388" y="867"/>
      <point x="606" y="867" type="curve" smooth="yes"/>
      <point x="708" y="867"/>
      <point x="755" y="805"/>
      <point x="755" y="707" type="curve" smooth="yes"/>
      <point x="755" y="409"/>
      <point x="585" y="52"/>
    </contour>
  </outline>
</glyph>
<glyph name="u" format="2">
  <advance width="1151"/>
  <unicode hex="0075"/>
  <anchor x="386" y="0" name="bottom"/>
  <anchor x="832" y="0" name="ogonek"/>
  <anchor x="506" y="920" name="top"/>
  <outline>
    <contour>
      <point x="258" y="-20" type="curve" smooth="yes"/>
      <point x="485" y="-20"/>
      <point x="736" y="349"/>
      <point x="812" y="654" type="curve"/>
      <point x="757" y="654" type="line"/>
      <point x="681" y="347"/>
      <point x="419" y="73"/>
      <point x="303" y="73" type="curve" smooth="yes"/>
      <point x="211" y="73"/>
      <point x="209.56" y="149.748"/>
      <point x="255" y="305" type="curve" smooth="yes"/>
      <point x="435" y="920" type="line"/>
      <point x="124" y="920" type="line"/>
      <point x="124" y="847" type="line"/>
      <point x="248" y="847" type="line"/>
      <point x="86" y="282" type="line" smooth="yes"/>
      <point x="39.738" y="120.656"/>
      <point x="65" y="-20"/>
    </contour>
    <contour>
      <point x="770" y="-20" type="curve" smooth="yes"/>
      <point x="917" y="-20"/>
      <point x="995" y="76"/>
      <point x="1081" y="306" type="curve"/>
      <point x="1010" y="330" type="line"/>
      <point x="934" y="148"/>
      <point x="885" y="72"/>
      <point x="817" y="72" type="curve" smooth="yes"/>
      <point x="792" y="72"/>
      <point x="780" y="89"/>
      <point x="780" y="110" type="curve" smooth="yes"/>
      <point x="780" y="120"/>
      <point x="780.719" y="134.077"/>
      <point x="784" y="146" type="curve" smooth="yes"/>
      <point x="997" y="920" type="line"/>
      <point x="827" y="920" type="line"/>
      <point x="629" y="170" type="line" smooth="yes"/>
      <point x="623.413" y="148.836"/>
      <point x="620" y="121"/>
      <point x="620" y="105" type="curve" smooth="yes"/>
      <point x="620" y="45"/>
      <point x="666" y="-20"/>
    </contour>
  </outline>
</glyph>
<glyph name="y" format="2">
  <advance width="1015"/>
  <unicode hex="0079"/>
  <anchor x="283" y="-500" name="bottom"/>
  <anchor x="573" y="920" name="top"/>
  <outline>
    <contour>
      <point x="92" y="-520" type="curve" smooth="yes"/>
      <point x="462" y="-520"/>
      <point x="1075" y="472"/>
      <point x="1075" y="732" type="curve" smooth="yes"/>
      <point x="1075" y="814"/>
      <point x="1039" y="939"/>
      <point x="917" y="939" type="curve" smooth="yes"/>
      <point x="843" y="939"/>
      <point x="793" y="887"/>
      <point x="793" y="826" type="curve" smooth="yes"/>
      <point x="793" y="766"/>
      <point x="839" y="712"/>
      <point x="919" y="712" type="curve" smooth="yes"/>
      <point x="987" y="712"/>
      <point x="1043" y="759"/>
      <point x="1043" y="826" type="curve" smooth="yes"/>
      <point x="1043" y="882"/>
      <point x="991" y="937"/>
      <point x="917" y="937" type="curve"/>
      <point x="917" y="864" type="line"/>
      <point x="969" y="864"/>
      <point x="998" y="797"/>
      <point x="998" y="730" type="curve" smooth="yes"/>
      <point x="998" y="524"/>
      <point x="410" y="-447"/>
      <point x="90" y="-447" type="curve" smooth="yes"/>
      <point x="-6" y="-447"/>
      <point x="-51" y="-402"/>
      <point x="-51" y="-302" type="curve"/>
      <point x="-124" y="-302" type="line"/>
      <point x="-124" y="-362"/>
      <point x="-44" y="-387"/>
      <point x="8" y="-387" type="curve" smooth="yes"/>
      <point x="58" y="-387"/>
      <point x="109" y="-343"/>
      <point x="109" y="-277" type="curve" smooth="yes"/>
      <point x="109" y="-201"/>
      <point x="47" y="-170"/>
      <point x="-3" y="-170" type="curve" smooth="yes"/>
      <point x="-79" y="-170"/>
      <point x="-126" y="-236"/>
      <point x="-126" y="-302" type="curve" smooth="yes"/>
      <point x="-126" y="-432"/>
      <point x="-42" y="-520"/>
    </contour>
    <contour>
      <point x="634" y="-103" type="curve"/>
      <point x="682" y="-41"/>
      <point x="702" y="7"/>
      <point x="742" y="66" type="curve"/>
      <point x="612" y="259"/>
      <point x="546" y="591"/>
      <point x="491" y="771" type="curve" smooth="yes"/>
      <point x="464" y="867"/>
      <point x="418" y="939"/>
      <point x="305" y="939" type="curve" smooth="yes"/>
      <point x="181" y="939"/>
      <point x="106" y="873"/>
      <point x="40" y="693" type="curve"/>
      <point x="112" y="662" type="line"/>
      <point x="150" y="773"/>
      <point x="198" y="838"/>
      <point x="259" y="838" type="curve" smooth="yes"/>
      <point x="295" y="838"/>
      <point x="306" y="820"/>
      <point x="314" y="799" type="curve" smooth="yes"/>
      <point x="369" y="654"/>
      <point x="488" y="149"/>
    </contour>
  </outline>
</glyph>
<glyph name="twosuperior" format="2">
  <advance width="939"/>
  <unicode hex="00B2"/>
  <outline>
    <contour>
      <point x="390" y="914" type="line"/>
      <point x="934.8" y="914" type="line"/>
      <point x="976.8" y="1112" type="line"/>
      <point x="932.4" y="1112" type="line"/>
      <point x="913.8" y="1022" type="line"/>
      <point x="501.6" y="1022" type="line"/>
      <point x="889.8" y="1350.2" type="line" smooth="yes"/>
      <point x="958.2" y="1408.4"/>
      <point x="1080.6" y="1520.6"/>
      <point x="1080.6" y="1640.6" type="curve" smooth="yes"/>
      <point x="1080.6" y="1748.6"/>
      <point x="997.2" y="1826"/>
      <point x="852" y="1826" type="curve" smooth="yes"/>
      <point x="672.6" y="1826"/>
      <point x="550.2" y="1704.8"/>
      <point x="550.2" y="1564.4" type="curve" smooth="yes"/>
      <point x="550.2" y="1502"/>
      <point x="582" y="1468.4"/>
      <point x="624" y="1468.4" type="curve" smooth="yes"/>
      <point x="666" y="1468.4"/>
      <point x="699" y="1497.2"/>
      <point x="699" y="1545.2" type="curve" smooth="yes"/>
      <point x="699" y="1587.2"/>
      <point x="664.2" y="1612.4"/>
      <point x="628.8" y="1612.4" type="curve" smooth="yes"/>
      <point x="589.2" y="1612.4"/>
      <point x="551.4" y="1588.4"/>
      <point x="551.4" y="1564.4" type="curve"/>
      <point x="592.2" y="1564.4" type="line"/>
      <point x="592.2" y="1690.4"/>
      <point x="703.2" y="1775"/>
      <point x="816" y="1775" type="curve" smooth="yes"/>
      <point x="901.2" y="1775"/>
      <point x="963" y="1737.8"/>
      <point x="963" y="1640" type="curve" smooth="yes"/>
      <point x="963" y="1485.2"/>
      <point x="802.8" y="1337"/>
      <point x="700.2" y="1248.2" type="curve" smooth="yes"/>
      <point x="403.8" y="992" type="line"/>
    </contour>
  </outline>
</glyph>
<glyph name="onesuperior" format="2">
  <advance width="1059"/>
  <unicode hex="00B9"/>
  <outline>
    <contour>
      <point x="607.6" y="912" type="line"/>
      <point x="721" y="912" type="line"/>
      <point x="925" y="1812" type="line"/>
      <point x="669.4" y="1812" type="line"/>
      <point x="669.4" y="1768.2" type="line"/>
      <point x="800.8" y="1768.2" type="line"/>
    </contour>
    <contour>
      <point x="484" y="912" type="line"/>
      <point x="861.4" y="912" type="line"/>
      <point x="861.4" y="955.8" type="line"/>
      <point x="484" y="955.8" type="line"/>
    </contour>
  </outline>
</glyph>
<glyph name="Eth" format="2">
  <advance width="1389"/>
  <unicode hex="00D0"/>
  <anchor x="443" y="0" name="bottom"/>
  <anchor x="443" y="0" name="cedilla"/>
  <anchor x="734" y="1500" name="top"/>
  <outline>
    <contour>
      <point x="145" y="694" type="line"/>
      <point x="739" y="694" type="line"/>
      <point x="739" y="766" type="line"/>
      <point x="145" y="766" type="line"/>
    </contour>
    <component base="D"/>
  </outline>
</glyph>
<glyph name="Dcroat" format="2">
  <advance width="1389"/>
  <unicode hex="0110"/>
  <outline>
    <contour>
      <point x="144.967" y="694" type="line"/>
      <point x="739" y="694" type="line"/>
      <point x="739" y="766" type="line"/>
      <point x="144.967" y="766" type="line"/>
    </contour>
    <component base="D"/>
  </outline>
</glyph>
<glyph name="tbar" format="2">
  <advance width="662"/>
  <unicode hex="0167"/>
  <outline>
    <contour>
      <point x="81.969" y="574" type="line"/>
      <point x="596" y="574" type="line"/>
      <point x="596" y="646" type="line"/>
      <point x="81.969" y="646" type="line"/>
    </contour>
    <component base="t"/>
  </outline>
</glyph>
<glyph name="dieresiscomb" format="2">
  <unicode hex="0308"/>
  <anchor x="773" y="1500" name="_top"/>
  <outline>
    <contour>
      <point x="967" y="1690" type="curve" smooth="yes"/>
      <point x="1020" y="1690"/>
      <point x="1062" y="1733"/>
      <point x="1062" y="1786" type="curve" smooth="yes"/>
      <point x="1062" y="1839"/>
      <point x="1020" y="1883"/>
      <point x="967" y="1883" type="curve" smooth="yes"/>
      <point x="914" y="1883"/>
      <point x="870" y="1839"/>
      <point x="870" y="1786" type="curve" smooth="yes"/>
      <point x="870" y="1733"/>
      <point x="914" y="1690"/>
    </contour>
    <contour>
      <point x="647" y="1690" type="curve" smooth="yes"/>
      <point x="700" y="1690"/>
      <point x="742" y="1733"/>
      <point x="742" y="1786" type="curve" smooth="yes"/>
      <point x="742" y="1839"/>
      <point x="700" y="1883"/>
      <point x="647" y="1883" type="curve" smooth="yes"/>
      <point x="594" y="1883"/>
      <point x="550" y="1839"/>
      <point x="550" y="1786" type="curve" smooth="yes"/>
      <point x="550" y="1733"/>
      <point x="594" y="1690"/>
    </contour>
  </outline>
</glyph>
<glyph name="commaturnedabovecomb" format="2">
  <unicode hex="0312"/>
  <anchor x="617" y="920" name="_top"/>
  <outline>
    <contour>
      <point x="669" y="1098" type="curve" smooth="yes"/>
      <point x="730" y="1098"/>
      <point x="776" y="1145"/>
      <point x="776" y="1197" type="curve" smooth="yes"/>
      <point x="776" y="1246"/>
      <point x="745" y="1287"/>
      <point x="676" y="1287" type="curve" smooth="yes"/>
      <point x="630" y="1287"/>
      <point x="563" y="1261"/>
      <point x="563" y="1221" type="curve"/>
      <point x="622" y="1221" type="line"/>
      <point x="622" y="1333"/>
      <point x="746" y="1461"/>
      <point x="851" y="1461" type="curve"/>
      <point x="851" y="1521" type="line"/>
      <point x="707" y="1521"/>
      <point x="562" y="1365"/>
      <point x="562" y="1221" type="curve" smooth="yes"/>
      <point x="562" y="1137"/>
      <point x="606" y="1098"/>
    </contour>
  </outline>
</glyph>
<glyph name="emdash" format="2">
  <advance width="1569"/>
  <unicode hex="2014"/>
  <outline>
    <contour>
      <point x="166.835" y="514" type="line"/>
      <point x="1496.478" y="514" type="line"/>
      <point x="1496.478" y="586" type="line"/>
      <point x="166.835" y="586" type="line"/>
    </contour>
  </outline>
</glyph>
<glyph name="pertenthousand" format="2">
  <advance width="3880"/>
  <unicode hex="2031"/>
  <outline>
    <contour>
      <point x="3340" y="-20" type="curve" smooth="yes"/>
      <point x="3606" y="-20"/>
      <point x="3819" y="235"/>
      <point x="3819" y="561" type="curve" smooth="yes"/>
      <point x="3819" y="767"/>
      <point x="3707" y="859"/>
      <point x="3521" y="859" type="curve" smooth="yes"/>
      <point x="3255" y="859"/>
      <point x="3040" y="605"/>
      <point x="3040" y="279" type="curve" smooth="yes"/>
      <point x="3040" y="73"/>
      <point x="3154" y="-20"/>
    </contour>
    <contour>
      <point x="3340" y="53" type="curve" smooth="yes"/>
      <point x="3272" y="53"/>
      <point x="3239" y="116"/>
      <point x="3239" y="240" type="curve" smooth="yes"/>
      <point x="3239" y="504"/>
      <point x="3373" y="787"/>
      <point x="3521" y="787" type="curve" smooth="yes"/>
      <point x="3589" y="787"/>
      <point x="3620" y="724"/>
      <point x="3620" y="600" type="curve" smooth="yes"/>
      <point x="3620" y="336"/>
      <point x="3488" y="53"/>
    </contour>
    <component base="perthousand"/>
  </outline>
</glyph>
<glyph name="overline" format="2">
  <advance width="719"/>
  <unicode hex="203E"/>
  <outline>
    <contour>
      <point x="275.917" y="1543" type="line"/>
      <point x="1015.919" y="1543" type="line"/>
      <point x="1015.919" y="1615" type="line"/>
      <point x="275.917" y="1615" type="line"/>
    </contour>
  </outline>
</glyph>
<glyph name="product" format="2">
  <advance width="1572"/>
  <unicode hex="220F"/>
  <outline>
    <contour>
      <point x="906" y="0" type="line"/>
      <point x="1097" y="0" type="line"/>
      <point x="1443" y="1500" type="line"/>
      <point x="1252" y="1500" type="line"/>
    </contour>
    <contour>
      <point x="-124" y="0" type="line"/>
      <point x="446" y="0" type="line"/>
      <point x="463" y="73" type="line"/>
      <point x="-107" y="73" type="line"/>
    </contour>
    <contour>
      <point x="706" y="0" type="line"/>
      <point x="1276" y="0" type="line"/>
      <point x="1293" y="73" type="line"/>
      <point x="723" y="73" type="line"/>
    </contour>
    <contour>
      <point x="57" y="0" type="line"/>
      <point x="247" y="0" type="line"/>
      <point x="593" y="1500" type="line"/>
      <point x="403" y="1500" type="line"/>
    </contour>
    <contour>
      <point x="205" y="1427" type="line"/>
      <point x="1605" y="1427" type="line"/>
      <point x="1622" y="1500" type="line"/>
      <point x="222" y="1500" type="line"/>
    </contour>
  </outline>
</glyph>
<glyph name="lozenge" format="2">
  <advance width="1200"/>
  <unicode hex="25CA"/>
  <outline>
    <contour>
      <point x="409" y="30" type="line"/>
      <point x="954" y="712" type="line"/>
      <point x="723" y="1392" type="line"/>
      <point x="154" y="712" type="line"/>
    </contour>
    <contour>
      <point x="448" y="200" type="line"/>
      <point x="254" y="712" type="line"/>
      <point x="684" y="1222" type="line"/>
      <point x="862" y="712" type="line"/>
    </contour>
  </outline>
</glyph>
<glyph name="d.sc" format="2">
  <advance width="1235"/>
  <anchor x="312" y="0" name="bottom"/>
  <anchor x="312" y="0" name="cedilla"/>
  <anchor x="588" y="1020" name="top"/>
  <outline>
    <contour>
      <point x="-125" y="0" type="line"/>
      <point x="385" y="0" type="line" smooth="yes"/>
      <point x="661" y="0"/>
      <point x="951" y="154"/>
      <point x="1033" y="510" type="curve" smooth="yes"/>
      <point x="1113" y="856"/>
      <point x="935" y="1020"/>
      <point x="620" y="1020" type="curve" smooth="yes"/>
      <point x="110" y="1020" type="line"/>
      <point x="94" y="947" type="line"/>
      <point x="604" y="947" type="line" smooth="yes"/>
      <point x="812" y="947"/>
      <point x="869" y="793"/>
      <point x="804" y="510" type="curve" smooth="yes"/>
      <point x="736" y="217"/>
      <point x="610" y="73"/>
      <point x="402" y="73" type="curve" smooth="yes"/>
      <point x="-108" y="73" type="line"/>
    </contour>
    <contour>
      <point x="36" y="0" type="line"/>
      <point x="226" y="0" type="line"/>
      <point x="461" y="1020" type="line"/>
      <point x="271" y="1020" type="line"/>
    </contour>
  </outline>
</glyph>
<glyph name="five.osf" format="2">
  <advance width="1000"/>
  <outline>
    <contour>
      <point x="-13" y="210.971" type="line"/>
      <point x="60" y="210.971" type="line"/>
      <point x="261" y="749.175" type="line"/>
      <point x="920" y="749.175" type="line"/>
      <point x="979" y="1023.982" type="line"/>
      <point x="907" y="1023.982" type="line"/>
      <point x="885" y="920.335" type="line"/>
      <point x="247" y="920.335" type="line"/>
    </contour>
    <contour>
      <point x="222" y="-525.018" type="curve" smooth="yes"/>
      <point x="524" y="-525.018"/>
      <point x="809" y="-257.818"/>
      <point x="809" y="27.449" type="curve" smooth="yes"/>
      <point x="809" y="274.681"/>
      <point x="656" y="386.886"/>
      <point x="404" y="386.886" type="curve" smooth="yes"/>
      <point x="222" y="386.886"/>
      <point x="108" y="318.422"/>
      <point x="36" y="210.971" type="curve"/>
      <point x="108" y="210.971" type="line"/>
      <point x="172" y="278.484"/>
      <point x="270" y="310.815"/>
      <point x="370" y="310.815" type="curve" smooth="yes"/>
      <point x="518" y="310.815"/>
      <point x="600" y="206.217"/>
      <point x="600" y="27.449" type="curve" smooth="yes"/>
      <point x="600" y="-190.305"/>
      <point x="460" y="-453.701"/>
      <point x="202" y="-453.701" type="curve" smooth="yes"/>
      <point x="83" y="-453.701"/>
      <point x="-55" y="-374.777"/>
      <point x="-55" y="-260.67" type="curve"/>
      <point x="-128" y="-260.67" type="line"/>
      <point x="-128" y="-308.215"/>
      <point x="-77" y="-353.858"/>
      <point x="-17" y="-353.858" type="curve" smooth="yes"/>
      <point x="42" y="-353.858"/>
      <point x="99" y="-315.822"/>
      <point x="99" y="-249.26" type="curve" smooth="yes"/>
      <point x="99" y="-173.188"/>
      <point x="33" y="-142.76"/>
      <point x="-17" y="-142.76" type="curve" smooth="yes"/>
      <point x="-78" y="-142.76"/>
      <point x="-130" y="-182.697"/>
      <point x="-130" y="-260.67" type="curve" smooth="yes"/>
      <point x="-130" y="-398.549"/>
      <point x="18" y="-525.018"/>
    </contour>
  </outline>
</glyph>
<glyph name="l.sc" format="2">
  <advance width="999"/>
  <anchor x="355" y="0" name="bottom"/>
  <anchor x="355" y="0" name="cedilla"/>
  <anchor x="338" y="1020" name="top"/>
  <anchor x="508" y="443" name="topright"/>
  <outline>
    <contour>
      <point x="6" y="0" type="line"/>
      <point x="196" y="0" type="line"/>
      <point x="431" y="1020" type="line"/>
      <point x="241" y="1020" type="line"/>
    </contour>
    <contour>
      <point x="-125" y="0" type="line"/>
      <point x="769" y="0" type="line"/>
      <point x="850" y="350" type="line"/>
      <point x="776" y="350" type="line"/>
      <point x="731" y="156"/>
      <point x="687" y="73"/>
      <point x="373" y="73" type="curve" smooth="yes"/>
      <point x="-108" y="73" type="line"/>
    </contour>
    <contour>
      <point x="94" y="947" type="line"/>
      <point x="545" y="947" type="line"/>
      <point x="561" y="1020" type="line"/>
      <point x="110" y="1020" type="line"/>
    </contour>
  </outline>
</glyph>
<glyph name="q.sc" format="2">
  <advance width="1279"/>
  <anchor x="664" y="1020" name="top"/>
  <outline>
    <contour>
      <point x="424" y="-20" type="curve" smooth="yes"/>
      <point x="730" y="-20"/>
      <point x="1012" y="184"/>
      <point x="1087" y="510" type="curve" smooth="yes"/>
      <point x="1162" y="836"/>
      <point x="956" y="1040"/>
      <point x="669" y="1040" type="curve" smooth="yes"/>
      <point x="382" y="1040"/>
      <point x="83" y="836"/>
      <point x="8" y="510" type="curve" smooth="yes"/>
      <point x="-67" y="184"/>
      <point x="118" y="-20"/>
    </contour>
    <contour>
      <point x="641" y="-500" type="curve"/>
      <point x="657" y="-427" type="line"/>
      <point x="469" y="-427"/>
      <point x="443" y="-363"/>
      <point x="527" y="0" type="curve"/>
      <point x="451" y="0"/>
      <point x="372" y="0"/>
      <point x="296" y="0" type="curve"/>
      <point x="216" y="-346"/>
      <point x="215" y="-500"/>
    </contour>
    <contour>
      <point x="440" y="47" type="curve" smooth="yes"/>
      <point x="222" y="47"/>
      <point x="176" y="247"/>
      <point x="237" y="510" type="curve" smooth="yes"/>
      <point x="298" y="773"/>
      <point x="456" y="973"/>
      <point x="654" y="973" type="curve" smooth="yes"/>
      <point x="852" y="973"/>
      <point x="919" y="773"/>
      <point x="858" y="510" type="curve" smooth="yes"/>
      <point x="797" y="247"/>
      <point x="658" y="47"/>
    </contour>
  </outline>
</glyph>
<glyph name="r.sc" format="2">
  <advance width="1085"/>
  <anchor x="415" y="0" name="bottom"/>
  <anchor x="85" y="0" name="cedilla"/>
  <anchor x="570" y="1020" name="top"/>
  <outline>
    <contour>
      <point x="750" y="-20" type="curve" smooth="yes"/>
      <point x="812" y="-20"/>
      <point x="841" y="-8"/>
      <point x="877" y="10" type="curve"/>
      <point x="868" y="79" type="line"/>
      <point x="848" y="67"/>
      <point x="826" y="58"/>
      <point x="804" y="58" type="curve" smooth="yes"/>
      <point x="772" y="58"/>
      <point x="762" y="75"/>
      <point x="762" y="103" type="curve" smooth="yes"/>
      <point x="762" y="153"/>
      <point x="794" y="236"/>
      <point x="794" y="313" type="curve" smooth="yes"/>
      <point x="794" y="403"/>
      <point x="751" y="485"/>
      <point x="569" y="503" type="curve"/>
      <point x="789" y="517"/>
      <point x="903" y="597"/>
      <point x="936" y="741" type="curve" smooth="yes"/>
      <point x="973" y="901"/>
      <point x="862" y="1020"/>
      <point x="610" y="1020" type="curve" smooth="yes"/>
      <point x="110" y="1020" type="line"/>
      <point x="94" y="947" type="line"/>
      <point x="214" y="947" type="line"/>
      <point x="13" y="73" type="line"/>
      <point x="-108" y="73" type="line"/>
      <point x="-125" y="0" type="line"/>
      <point x="306" y="0" type="line"/>
      <point x="323" y="73" type="line"/>
      <point x="202" y="73" type="line"/>
      <point x="403" y="947" type="line"/>
      <point x="594" y="947" type="line" smooth="yes"/>
      <point x="735" y="947"/>
      <point x="764" y="859"/>
      <point x="737" y="741" type="curve" smooth="yes"/>
      <point x="710" y="623"/>
      <point x="641" y="541"/>
      <point x="500" y="541" type="curve" smooth="yes"/>
      <point x="224" y="541" type="line"/>
      <point x="207" y="469" type="line"/>
      <point x="443" y="469" type="line" smooth="yes"/>
      <point x="588" y="469"/>
      <point x="624" y="414"/>
      <point x="624" y="341" type="curve" smooth="yes"/>
      <point x="624" y="266"/>
      <point x="586" y="172"/>
      <point x="586" y="99" type="curve" smooth="yes"/>
      <point x="586" y="31"/>
      <point x="619" y="-20"/>
    </contour>
  </outline>
</glyph>
<glyph name="seven.tosf" format="2">
  <advance width="1160"/>
  <outline>
    <contour>
      <point x="334" y="-519.947" type="curve" smooth="yes"/>
      <point x="422" y="-519.947"/>
      <point x="463" y="-461.21"/>
      <point x="463" y="-391.105" type="curve" smooth="yes"/>
      <point x="463" y="-266.052"/>
      <point x="355" y="-275.526"/>
      <point x="355" y="-194.052" type="curve" smooth="yes"/>
      <point x="355" y="-108.789"/>
      <point x="487" y="75"/>
      <point x="621" y="253.107" type="curve" smooth="yes"/>
      <point x="801" y="493.739"/>
      <point x="1133" y="920.055"/>
      <point x="1133" y="920.055" type="curve"/>
      <point x="206" y="920.055" type="line"/>
      <point x="135" y="597.949" type="line"/>
      <point x="207" y="597.949" type="line"/>
      <point x="239" y="741.002" type="line"/>
      <point x="904" y="741.002" type="line"/>
      <point x="782" y="589.423"/>
      <point x="615" y="380.054"/>
      <point x="525" y="253.107" type="curve" smooth="yes"/>
      <point x="373" y="41.843"/>
      <point x="202" y="-216.789"/>
      <point x="202" y="-375.947" type="curve" smooth="yes"/>
      <point x="202" y="-468.789"/>
      <point x="266" y="-519.947"/>
    </contour>
  </outline>
</glyph>
<glyph name="three.osf" format="2">
  <advance width="1041"/>
  <outline>
    <contour>
      <point x="292" y="-519.96" type="curve" smooth="yes"/>
      <point x="574" y="-519.96"/>
      <point x="832" y="-358.803"/>
      <point x="832" y="-83.889" type="curve" smooth="yes"/>
      <point x="832" y="125.615"/>
      <point x="738" y="276.344"/>
      <point x="306" y="276.344" type="curve"/>
      <point x="306" y="233.685" type="line"/>
      <point x="594" y="233.685"/>
      <point x="630" y="56.412"/>
      <point x="630" y="-83.889" type="curve" smooth="yes"/>
      <point x="630" y="-290.548"/>
      <point x="490" y="-454.549"/>
      <point x="252" y="-454.549" type="curve" smooth="yes"/>
      <point x="76" y="-454.549"/>
      <point x="-45" y="-360.699"/>
      <point x="-45" y="-246.941" type="curve"/>
      <point x="-118" y="-246.941" type="line"/>
      <point x="-118" y="-294.34"/>
      <point x="-64" y="-330.364"/>
      <point x="-6" y="-330.364" type="curve" smooth="yes"/>
      <point x="53" y="-330.364"/>
      <point x="107" y="-291.496"/>
      <point x="107" y="-230.826" type="curve" smooth="yes"/>
      <point x="107" y="-162.571"/>
      <point x="61" y="-125.6"/>
      <point x="0" y="-125.6" type="curve" smooth="yes"/>
      <point x="-70" y="-125.6"/>
      <point x="-120" y="-169.207"/>
      <point x="-120" y="-246.941" type="curve" smooth="yes"/>
      <point x="-120" y="-384.398"/>
      <point x="8" y="-519.96"/>
    </contour>
    <contour>
      <point x="306" y="259.28" type="line"/>
      <point x="768" y="259.28"/>
      <point x="932" y="477.315"/>
      <point x="932" y="666.911" type="curve" smooth="yes"/>
      <point x="932" y="876.415"/>
      <point x="755" y="938.034"/>
      <point x="532" y="938.034" type="curve" smooth="yes"/>
      <point x="328" y="938.034"/>
      <point x="159" y="816.692"/>
      <point x="159" y="679.235" type="curve" smooth="yes"/>
      <point x="159" y="601.501"/>
      <point x="214" y="561.686"/>
      <point x="275" y="561.686" type="curve" smooth="yes"/>
      <point x="325" y="561.686"/>
      <point x="388" y="591.073"/>
      <point x="388" y="666.911" type="curve" smooth="yes"/>
      <point x="388" y="733.27"/>
      <point x="334" y="767.397"/>
      <point x="275" y="767.397" type="curve" smooth="yes"/>
      <point x="224" y="767.397"/>
      <point x="161" y="736.114"/>
      <point x="161" y="679.235" type="curve"/>
      <point x="234" y="679.235" type="line"/>
      <point x="234" y="802.473"/>
      <point x="369" y="871.675"/>
      <point x="502" y="871.675" type="curve" smooth="yes"/>
      <point x="660" y="871.675"/>
      <point x="730" y="788.253"/>
      <point x="730" y="666.911" type="curve" smooth="yes"/>
      <point x="730" y="545.57"/>
      <point x="624" y="301.939"/>
      <point x="306" y="301.939" type="curve"/>
    </contour>
  </outline>
</glyph>
<glyph name="x.sc" format="2">
  <advance width="1244"/>
  <anchor x="362" y="0" name="bottom"/>
  <anchor x="687" y="1020" name="top"/>
  <outline>
    <contour>
      <point x="685" y="0" type="line"/>
      <point x="925" y="0" type="line"/>
      <point x="397" y="1020" type="line"/>
      <point x="165" y="1020" type="line"/>
    </contour>
    <contour>
      <point x="-180" y="0" type="line"/>
      <point x="185" y="0" type="line"/>
      <point x="202" y="73" type="line"/>
      <point x="-163" y="73" type="line"/>
    </contour>
    <contour>
      <point x="-106" y="0" type="line"/>
      <point x="-18" y="0" type="line"/>
      <point x="611" y="594" type="line"/>
      <point x="523" y="594" type="line"/>
    </contour>
    <contour>
      <point x="520" y="0" type="line"/>
      <point x="1004" y="0" type="line"/>
      <point x="1021" y="73" type="line"/>
      <point x="537" y="73" type="line"/>
    </contour>
    <contour>
      <point x="80" y="947" type="line"/>
      <point x="539" y="947" type="line"/>
      <point x="555" y="1020" type="line"/>
      <point x="96" y="1020" type="line"/>
    </contour>
    <contour>
      <point x="478" y="514" type="line"/>
      <point x="570" y="514" type="line"/>
      <point x="1089" y="1016" type="line"/>
      <point x="1006" y="1016" type="line"/>
    </contour>
    <contour>
      <point x="816" y="947" type="line"/>
      <point x="1142" y="947" type="line"/>
      <point x="1158" y="1020" type="line"/>
      <point x="832" y="1020" type="line"/>
    </contour>
  </outline>
</glyph>
